<?xml version="1.0" standalone="no"?>
<!DOCTYPE svg PUBLIC "-//W3C//DTD SVG 20010904//EN"
 "http://www.w3.org/TR/2001/REC-SVG-20010904/DTD/svg10.dtd">
<svg version="1.0" xmlns="http://www.w3.org/2000/svg"
 width="1500.000000pt" height="1500.000000pt" viewBox="0 0 1500.000000 1500.000000"
 preserveAspectRatio="xMidYMid meet">
<metadata>
Created by potrace 1.14, written by Peter Selinger 2001-2017
</metadata>
<g transform="translate(0.000000,1500.000000) scale(0.100000,-0.100000)"
fill="#000000" stroke="none">
<path d="M6581 9179 c-243 -22 -518 -91 -706 -179 l-60 -28 223 -1 222 -1 0
-365 c0 -201 3 -365 8 -365 4 0 41 11 82 24 239 77 515 86 755 25 125 -32 271
-93 379 -159 l99 -60 558 0 559 0 -56 88 c-31 48 -81 121 -111 162 -81 109
-331 353 -453 442 -337 244 -737 389 -1158 417 -170 12 -204 12 -341 0z"/>
<path d="M5320 8400 l0 -320 325 0 325 0 0 320 0 320 -325 0 -325 0 0 -320z"/>
<path d="M4400 8285 l0 -145 150 0 150 0 0 145 0 145 -150 0 -150 0 0 -145z"/>
<path d="M4770 7815 l0 -245 245 0 245 0 0 245 0 245 -245 0 -245 0 0 -245z"/>
<path d="M3900 7890 l0 -160 150 0 150 0 0 160 0 160 -150 0 -150 0 0 -160z"/>
<path d="M4470 7400 l0 -140 140 0 140 0 0 140 0 140 -140 0 -140 0 0 -140z"/>
<path d="M6244 7411 c-44 -27 -54 -66 -54 -208 0 -208 18 -226 223 -221 l122
3 0 35 0 35 -123 5 c-94 4 -125 8 -132 20 -15 24 -13 245 3 258 7 7 66 13 133
14 l119 3 0 35 0 35 -130 3 c-114 2 -134 0 -161 -17z"/>
<path d="M6725 7421 c-57 -24 -81 -114 -71 -264 10 -154 36 -177 203 -177 167
0 193 23 201 173 7 145 -3 204 -43 244 l-33 33 -118 -1 c-66 0 -128 -4 -139
-8z m236 -88 c10 -11 14 -48 14 -128 0 -145 0 -145 -119 -145 -58 0 -96 4
-104 12 -8 8 -12 52 -12 133 0 81 4 125 12 133 8 8 46 12 104 12 73 0 94 -3
105 -17z"/>
<path d="M7186 7409 c-13 -20 -16 -54 -16 -204 0 -238 -9 -225 158 -225 108 0
132 3 159 20 47 28 65 72 71 170 6 114 -10 189 -49 226 -30 29 -31 29 -169 32
-134 3 -138 3 -154 -19z m268 -74 c34 -34 34 -218 0 -256 -16 -17 -29 -19
-108 -17 l-91 3 -3 143 -3 142 95 0 c71 0 98 -4 110 -15z"/>
<path d="M7672 7393 l3 -38 170 0 170 0 0 35 0 35 -173 3 -173 2 3 -37z"/>
<path d="M8460 7420 c-13 -8 -15 -44 -15 -222 l0 -213 37 -3 38 -3 2 178 3
178 84 -150 c117 -208 114 -205 164 -205 74 0 72 -6 72 232 l0 213 -37 3 -38
3 0 -172 c0 -107 -4 -169 -9 -163 -5 5 -50 81 -100 169 l-89 160 -49 3 c-26 1
-55 -2 -63 -8z"/>
<path d="M7685 7230 c-15 -17 -17 -31 -12 -97 6 -82 23 -117 68 -141 16 -8 64
-11 149 -10 l125 3 0 45 0 45 -120 3 c-131 3 -145 9 -145 64 l0 28 130 0 130
0 0 40 0 40 -153 0 c-141 0 -155 -2 -172 -20z"/>
<path d="M4460 6845 l0 -205 205 0 205 0 0 205 0 205 -205 0 -205 0 0 -205z"/>
<path d="M3740 6845 l0 -175 175 0 175 0 0 175 0 175 -175 0 -175 0 0 -175z"/>
<path d="M5000 6585 l0 -325 325 0 325 0 0 325 0 325 -325 0 -325 0 0 -325z"/>
<path d="M6360 6769 c-112 -34 -163 -155 -107 -253 64 -114 297 -129 391 -26
43 48 44 58 10 66 -22 6 -31 1 -50 -23 -59 -76 -206 -83 -276 -13 -23 24 -28
37 -28 80 0 45 4 56 33 85 61 61 178 58 231 -6 21 -25 32 -30 51 -25 14 4 25
12 25 20 0 19 -42 61 -81 82 -40 20 -150 28 -199 13z"/>
<path d="M6860 6600 l0 -170 35 0 35 0 0 65 0 66 88 -3 87 -3 28 -53 c16 -29
39 -60 52 -68 41 -27 112 1 90 36 -4 7 -12 7 -25 0 -16 -9 -22 -5 -36 17 -9
16 -25 40 -35 55 -23 33 -23 38 -5 38 8 0 28 12 45 26 55 46 36 127 -36 155
-13 5 -92 9 -174 9 l-149 0 0 -170z m302 108 c26 -20 27 -58 2 -82 -12 -13
-39 -16 -125 -16 l-109 0 0 55 0 55 108 0 c71 0 114 -4 124 -12z"/>
<path d="M7460 6600 l0 -170 170 0 170 0 0 25 0 25 -140 0 -140 0 0 50 0 49
128 3 c119 3 127 4 127 23 0 19 -8 20 -127 23 l-128 3 0 44 0 45 135 0 135 0
0 25 0 25 -165 0 -165 0 0 -170z"/>
<path d="M8047 6600 l-88 -170 36 0 c31 0 38 5 52 35 l17 35 111 0 111 0 17
-35 c14 -30 21 -35 52 -35 l36 0 -88 170 -88 170 -40 0 -40 0 -88 -170z m131
-48 c-44 -2 -82 -1 -85 1 -2 3 15 41 39 85 l43 81 41 -82 42 -82 -80 -3z"/>
<path d="M8540 6745 c0 -24 2 -25 75 -25 l75 0 0 -145 0 -145 35 0 35 0 0 145
0 145 75 0 c73 0 75 1 75 25 l0 25 -185 0 -185 0 0 -25z"/>
<path d="M9090 6600 l0 -170 35 0 35 0 0 170 0 170 -35 0 -35 0 0 -170z"/>
<path d="M9330 6765 c0 -3 39 -80 86 -170 l86 -165 37 0 37 0 88 170 88 170
-36 0 -36 0 -67 -135 c-37 -74 -70 -135 -73 -135 -3 0 -36 61 -75 135 -68 131
-71 135 -102 135 -18 0 -33 -2 -33 -5z"/>
<path d="M9920 6600 l0 -170 35 0 35 0 0 170 0 170 -35 0 -35 0 0 -170z"/>
<path d="M10170 6745 c0 -24 2 -25 75 -25 l75 0 0 -145 0 -145 30 0 29 0 3
143 3 142 78 3 c74 3 77 4 77 27 l0 25 -185 0 -185 0 0 -25z"/>
<path d="M10697 6758 c160 -202 163 -206 163 -269 0 -59 0 -59 30 -59 l30 0 0
61 c0 66 -4 59 138 237 l34 42 -39 0 c-37 0 -42 -4 -98 -80 -32 -44 -62 -80
-65 -80 -3 0 -33 36 -65 80 -56 76 -61 80 -98 80 -30 0 -37 -3 -30 -12z"/>
<path d="M7480 5929 c-154 -94 -300 -147 -488 -180 -156 -26 -376 -23 -496 7
l-26 6 0 -141 0 -141 -300 0 -300 0 0 -145 0 -144 -122 -3 -123 -3 85 -46
c405 -222 915 -312 1374 -244 245 37 442 98 671 210 232 113 399 232 591 422
100 99 265 308 317 402 l28 51 -563 0 -563 0 -85 -51z"/>
<path d="M5120 5665 l0 -235 235 0 235 0 0 235 0 235 -235 0 -235 0 0 -235z"/>
</g>
</svg>
