<?xml version="1.0" standalone="no"?>
<!DOCTYPE svg PUBLIC "-//W3C//DTD SVG 20010904//EN"
 "http://www.w3.org/TR/2001/REC-SVG-20010904/DTD/svg10.dtd">
<svg version="1.0" xmlns="http://www.w3.org/2000/svg"
 width="140.000000pt" height="140.000000pt" viewBox="0 0 140.000000 140.000000"
 preserveAspectRatio="xMidYMid meet">
<metadata>
Created by potrace 1.14, written by Peter Selinger 2001-2017
</metadata>
<g transform="translate(0.000000,140.000000) scale(0.100000,-0.100000)"
fill="#000000" stroke="none">
<path d="M547 1055 c-62 -17 -70 -25 -26 -25 l35 0 -1 -57 0 -58 67 3 c51 3
77 -1 113 -17 37 -16 68 -21 136 -21 49 0 89 3 89 8 0 4 -20 28 -45 54 -103
108 -237 149 -368 113z"/>
<path d="M346 1035 c-11 -28 -7 -35 20 -35 21 0 25 4 22 22 -4 27 -33 36 -42
13z"/>
<path d="M202 988 c2 -15 10 -23 23 -23 13 0 21 8 23 23 3 18 -1 22 -23 22
-22 0 -26 -4 -23 -22z"/>
<path d="M399 985 c0 -3 -1 -26 -1 -52 l-1 -48 57 -3 56 -3 0 56 0 55 -55 0
c-30 0 -55 -2 -56 -5z"/>
<path d="M342 963 c4 -24 38 -26 38 -2 0 13 -7 19 -21 19 -14 0 -19 -5 -17
-17z"/>
<path d="M246 931 c-11 -18 6 -41 30 -41 19 0 24 5 24 25 0 20 -5 25 -24 25
-14 0 -27 -4 -30 -9z"/>
<path d="M110 905 c0 -8 7 -15 15 -15 8 0 15 7 15 15 0 8 -7 15 -15 15 -8 0
-15 -7 -15 -15z"/>
<path d="M164 865 c-3 -8 -4 -20 -2 -26 6 -17 48 -22 49 -6 0 6 2 20 4 30 4
22 -43 24 -51 2z"/>
<path d="M307 874 c-3 -4 -4 -23 -1 -44 4 -31 2 -37 -13 -37 -10 0 -28 8 -39
19 -18 16 -22 17 -27 5 -3 -9 2 -17 14 -20 11 -3 19 -9 18 -14 -1 -4 -1 -15 0
-24 1 -22 44 -17 47 5 3 25 11 30 42 32 15 1 30 2 35 3 4 0 7 19 7 41 0 40 0
40 -38 40 -21 0 -41 -3 -45 -6z"/>
<path d="M130 805 c0 -8 7 -15 15 -15 8 0 15 7 15 15 0 8 -7 15 -15 15 -8 0
-15 -7 -15 -15z"/>
<path d="M393 783 c-9 -23 6 -45 29 -41 33 4 32 51 0 53 -13 1 -26 -4 -29 -12z"/>
<path d="M549 764 c-5 -6 -8 -22 -6 -35 3 -18 11 -25 33 -27 21 -2 25 0 14 7
-8 5 -17 8 -21 5 -4 -2 -9 7 -11 21 -4 19 -1 25 13 25 10 0 20 4 24 9 8 14
-34 9 -46 -5z"/>
<path d="M631 770 c-7 -4 -11 -20 -9 -36 3 -25 7 -29 33 -29 24 0 31 5 33 24
5 36 -28 60 -57 41z m45 -32 c3 -21 -9 -30 -29 -22 -13 4 -14 14 -8 42 3 12
35 -6 37 -20z"/>
<path d="M713 771 c-7 -5 -8 -14 -4 -59 1 -8 11 -12 29 -10 24 3 27 7 27 37 0
28 -4 35 -22 36 -12 1 -26 -1 -30 -4z m41 -20 c9 -14 -3 -38 -19 -38 -9 0 -15
10 -15 24 0 23 23 32 34 14z"/>
<path d="M800 770 c15 -10 58 -14 48 -5 -3 3 -18 8 -34 11 -22 3 -25 2 -14 -6z"/>
<path d="M925 766 c-3 -9 -7 -22 -9 -29 -2 -8 0 -20 5 -28 7 -11 9 -9 9 9 0
12 5 22 10 22 13 0 13 27 0 35 -6 3 -12 -1 -15 -9z"/>
<path d="M970 755 c0 -8 -5 -15 -11 -15 -6 0 -9 -8 -7 -17 6 -33 33 -21 34 15
0 17 -3 32 -8 32 -4 0 -8 -7 -8 -15z"/>
<path d="M330 741 c0 -20 25 -35 41 -25 5 3 9 14 9 25 0 14 -7 19 -25 19 -18
0 -25 -5 -25 -19z"/>
<path d="M800 740 c-7 -4 -10 -15 -7 -24 7 -18 42 -21 53 -4 4 6 3 9 -2 6 -5
-3 -18 -2 -29 3 -19 7 -19 8 2 8 12 1 24 5 27 9 6 11 -27 12 -44 2z"/>
<path d="M258 701 c-5 -53 -3 -56 30 -59 17 -2 33 0 33 5 7 50 6 63 -4 64 -7
0 -22 2 -34 3 -15 2 -24 -3 -25 -13z"/>
<path d="M139 706 c-8 -41 -2 -51 29 -54 31 -3 33 -2 29 25 -3 22 -10 29 -30
31 -15 2 -27 1 -28 -2z"/>
<path d="M344 638 l1 -53 55 0 55 0 0 50 -1 50 -55 3 -56 3 1 -53z"/>
<path d="M560 655 c-19 -23 -4 -45 30 -45 16 0 30 4 30 9 0 4 -11 6 -24 4 -30
-6 -41 11 -20 31 8 9 11 16 6 16 -5 0 -15 -7 -22 -15z"/>
<path d="M600 660 c0 -5 5 -10 11 -10 5 0 7 5 4 10 -3 6 -8 10 -11 10 -2 0 -4
-4 -4 -10z"/>
<path d="M659 663 c-8 -46 -6 -51 14 -40 15 9 21 9 24 0 3 -7 8 -13 12 -13 10
0 8 47 -3 57 -5 5 -7 1 -3 -9 5 -13 1 -18 -13 -18 -22 0 -27 16 -7 23 7 3 5 6
-5 6 -10 1 -19 -2 -19 -6z"/>
<path d="M756 654 c-3 -9 -6 -18 -6 -20 0 -9 39 -4 45 6 4 6 -1 7 -11 3 -13
-5 -16 -3 -11 10 3 9 2 17 -2 17 -5 0 -12 -7 -15 -16z"/>
<path d="M950 656 c6 -5 11 -19 11 -30 1 -21 1 -21 6 -1 3 11 9 25 14 31 5 6
-1 10 -16 10 -17 0 -22 -3 -15 -10z"/>
<path d="M1029 668 c-6 -13 -6 -58 0 -58 4 0 7 14 7 30 0 26 -3 37 -7 28z"/>
<path d="M1115 651 c-8 -25 -21 -27 -29 -5 -4 9 -9 14 -12 11 -7 -6 18 -47 29
-47 9 0 30 51 23 57 -2 3 -7 -5 -11 -16z"/>
<path d="M1216 662 c7 -4 14 -18 17 -32 4 -24 4 -24 6 3 1 19 5 26 13 21 7 -4
8 -3 4 4 -4 7 -17 12 -29 12 -13 0 -17 -3 -11 -8z"/>
<path d="M1301 665 c0 -5 5 -20 12 -32 12 -22 12 -22 30 10 19 32 19 32 -1 14
-19 -18 -21 -18 -31 0 -6 10 -10 14 -10 8z"/>
<path d="M850 641 c-14 -27 -14 -26 23 -27 31 0 33 1 23 23 -13 28 -32 30 -46
4z m30 -1 c0 -5 -5 -10 -11 -10 -5 0 -7 5 -4 10 3 6 8 10 11 10 2 0 4 -4 4
-10z"/>
<path d="M1162 635 c-1 -14 2 -25 6 -25 4 0 8 11 8 25 2 33 -11 33 -14 0z"/>
<path d="M204 634 c-2 -8 -6 -21 -9 -29 -2 -8 -11 -12 -19 -9 -11 4 -13 0 -9
-15 7 -27 33 -27 33 -1 0 15 7 20 25 20 18 0 25 5 25 19 0 23 -39 36 -46 15z"/>
<path d="M110 604 c0 -8 5 -12 10 -9 6 3 10 10 10 16 0 5 -4 9 -10 9 -5 0 -10
-7 -10 -16z"/>
<path d="M486 605 c4 -8 12 -15 20 -15 8 0 14 7 14 15 0 8 -9 15 -20 15 -13 0
-18 -5 -14 -15z"/>
<path d="M763 613 c9 -2 25 -2 35 0 9 3 1 5 -18 5 -19 0 -27 -2 -17 -5z"/>
<path d="M290 555 c0 -20 5 -25 25 -25 20 0 25 5 25 25 0 20 -5 25 -25 25 -20
0 -25 -5 -25 -25z"/>
<path d="M450 555 c0 -20 5 -25 25 -25 20 0 25 5 25 25 0 20 -5 25 -25 25 -20
0 -25 -5 -25 -25z"/>
<path d="M726 516 c-31 -14 -66 -22 -92 -21 -37 2 -43 0 -46 -18 -3 -18 -10
-21 -48 -22 -38 -1 -45 -4 -51 -25 -3 -14 -11 -24 -17 -23 -7 2 -12 -1 -12 -7
0 -5 32 -19 71 -31 116 -35 232 -15 329 56 51 37 105 101 93 108 -5 3 -46 5
-93 5 -67 0 -96 -5 -134 -22z"/>
<path d="M253 510 c-1 -14 4 -20 18 -20 23 0 26 25 3 34 -9 3 -17 6 -18 6 -1
0 -2 -9 -3 -20z"/>
<path d="M363 488 c1 -20 6 -39 12 -41 9 -4 46 -3 66 2 3 0 5 18 4 38 -1 37
-1 37 -42 38 l-41 1 1 -38z"/>
<path d="M510 509 c0 -12 7 -19 18 -19 10 0 19 6 19 14 0 8 -9 17 -19 19 -13
4 -18 0 -18 -14z"/>
<path d="M290 471 c0 -17 18 -21 24 -6 3 9 0 15 -9 15 -8 0 -15 -4 -15 -9z"/>
<path d="M252 441 c4 -13 18 -16 19 -4 0 4 -5 9 -11 12 -7 2 -11 -2 -8 -8z"/>
</g>
</svg>
